<svg xmlns="http://www.w3.org/2000/svg" xmlns:xlink="http://www.w3.org/1999/xlink"><symbol id="logo"><g fill="none">
    <path fill="#1F1E1E" d="M0 0h147v147H0z"/>
    <path d="M30.178 54.699H20.111v-16.92h-.025v-.025h-3.538v17.369h13.63v-.424ZM33.173 55.123h13.68v-.424H36.711v-8.422h7.925v-.45H36.71v-7.649h10.142v-.424h-13.68v17.369ZM53.385 55.123V38.178c2.168 0 8.846.822 9.345 10.49v6.455h3.538V37.754H62.73v7.8c-1.072-4.635-4.46-7.8-9.345-7.8h-3.538v17.369h3.538ZM73.54 55.123V38.178c2.167 0 8.845.822 9.343 10.49v6.455h3.539V37.754h-3.538v7.8c-1.072-4.635-4.46-7.8-9.345-7.8h-3.538v17.369h3.538ZM90.154 55.123h3.539V37.754h-3.539v17.369Z" fill="#fff"/>
    <path fill="#BC3324" d="M81 92h121v42H81z"/>
    <path d="M82.248 93.633h.407l2.22-6.456h6.456l2.515 6.456h3.375l-6.116-15.79h-3.42l-5.437 15.79Zm5.663-15.291 3.284 8.45h-6.184l2.9-8.45ZM100.159 77.844v15.789h3.217v-5.46h3.829l3.692 5.437h3.67l-3.897-5.776c2.266-.59 3.987-1.994 3.987-5.143 0-3.941-2.877-5.187-6.229-5.187-3.534 0-4.553 2.65-5.052 5.595v-5.255h-3.217Zm4.101 3.307c.611-2.22 2.197-3.126 3.601-3.24 3.376-.317 3.512 1.835 3.512 4.78 0 4.78-2.537 5.097-4.712 5.097h-3.285s-.09-3.126.884-6.637ZM122.39 78.229l.022 15.404h3.217V78.229h6.501v-.385h-16.242v.385h6.502Z" fill="#fff"/>
</g></symbol></svg>