<svg width="202" height="147" viewBox="0 0 202 147" fill="none" xmlns="http://www.w3.org/2000/svg">
<rect width="147" height="147" fill="#1F1E1E"/>
<path d="M30.1782 54.6989H20.1112V37.7793H20.0863V37.7544H16.5479V55.1225H30.1782V54.6989Z" fill="white"/>
<path d="M33.1731 55.1225H46.8533V54.6989H36.7115V46.2765H44.6355V45.8279H36.7115V38.178H46.8533V37.7544H33.1731V55.1225Z" fill="white"/>
<path d="M53.3854 55.1225V38.178C55.5533 38.178 62.2314 39.0003 62.7298 48.6686V55.1225H66.2682V37.7544H62.7298V45.5538C61.6583 40.919 58.2694 37.7544 53.3854 37.7544H49.847V55.1225H53.3854Z" fill="white"/>
<path d="M73.5391 55.1225V38.178C75.707 38.178 82.3851 39.0003 82.8835 48.6686V55.1225H86.4219V37.7544H82.8835V45.5538C81.812 40.919 78.4231 37.7544 73.5391 37.7544H70.0007V55.1225H73.5391Z" fill="white"/>
<path d="M90.1544 55.1225H93.6928V37.7544H90.1544V55.1225Z" fill="white"/>
<rect x="81" y="92" width="121" height="42" fill="#BC3324"/>
<path d="M82.2476 93.6326H82.6553L84.8753 87.1765H91.3314L93.8459 93.6326H97.2212L91.1049 77.8435H87.6843L82.2476 93.6326ZM87.9108 78.3418L91.1955 86.7914H85.0112L87.9108 78.3418Z" fill="white"/>
<path d="M100.159 77.8435V93.6326H103.376V88.1733H107.205L110.897 93.61H114.567L110.67 87.8335C112.936 87.2445 114.657 85.84 114.657 82.6912C114.657 78.7496 111.78 77.5037 108.428 77.5037C104.894 77.5037 103.875 80.1541 103.376 83.099V77.8435H100.159ZM104.26 81.1508C104.871 78.9308 106.457 78.0247 107.861 77.9114C111.237 77.5943 111.373 79.7463 111.373 82.6912C111.373 87.471 108.836 87.7882 106.661 87.7882H103.376C103.376 87.7882 103.286 84.662 104.26 81.1508Z" fill="white"/>
<path d="M122.39 78.2286L122.412 93.6326H125.629V78.2286H132.13V77.8435H115.888V78.2286H122.39Z" fill="white"/>
</svg>
